<?xml version="1.0" encoding="UTF-8"?><svg id="b" xmlns="http://www.w3.org/2000/svg" viewBox="0 0 215.8211 37.7317"><defs><style>.d{fill:#fff;}.e{fill-rule:evenodd;}.e,.f{fill:#cd3333;}</style></defs><g id="c"><g><rect class="d" x=".7953" y="2.7209" width="39.0638" height="31.2128"/><path class="f" d="m0,37.7317V0h41.665v37.7317H0m21.8649-20.04l3.6846,9.3771c.1089.3282.2553.6566.4375.9485.1095.1458.2553.292.4012.4016.1834.1092.4388.1824.6579.1092.2184-.0363.4368-.1458.5826-.2917.1465-.2191.293-.4378.4018-.6935.0363-.1459.0726-.2188.1465-.3649l3.7209-9.231v9.3042c0,.3649-.0356.6932-.0726.9852-.037.1825-.1095.3283-.2184.4741-.0739.0732-.1465.1462-.2561.2191l-.4018.2187c-.1095.0732-.2184.1462-.2916.2558-.1822.2187-.2191.511-.1095.7658.0363.1095.1458.2191.2553.2923.1458.0732.2923.1095.4381.1095h4.9265c.2553,0,.5107,0,.7291-.0732.1465-.0363.2554-.0726.4018-.1821.0719-.0732.1814-.2191.1814-.3649.0376-.1458,0-.3286-.0363-.4744-.0356-.1458-.1095-.2554-.2191-.3287-.1458-.0729-.2184-.1092-.3649-.1821-.1459-.0366-.2554-.1095-.4012-.2191-.1821-.1458-.2909-.3282-.3649-.584-.0357-.2187-.0726-.4741-.0726-.7295l-.037-.292v-10.3989c0-.1458.037-.292.037-.4741.0369-.1095.0726-.2191.1465-.3286.1088-.1095.1814-.1458.2909-.2187.1458-.0366.2553-.0729.3649-.1095.1101-.0366.2553-.073.3649-.1462.1458-.1092.2916-.2553.2916-.4378.0376-.2187.0376-.4378,0-.6566-.0719-.2191-.2553-.3649-.4368-.4378-.1834-.0732-.3649-.1462-.6203-.1462h-4.1603c-.1452,0-.2547,0-.3649.0366-.1821.0729-.3649.1824-.4744.3282-.1095.1824-.2191.3649-.291.5474l-.1458.4012-3.102,7.4435-2.809-7.1878c-.1095-.3286-.2191-.6202-.3655-.9122-.1089-.1458-.2553-.292-.3642-.4015-.1465-.1092-.3293-.1824-.5107-.2187-.2191-.0366-.4388-.0366-.6579-.0366h-3.9407c-.2916,0-.5464.0366-.7661.1462-.1451.0363-.291.1458-.4005.2553-.1102.1095-.1834.2916-.1834.4744,0,.1459,0,.2554.037.4375.1095.1095.1821.2191.2916.292.1458.0729.2917.1462.4382.2191.1465.0366.2916.1095.4374.1824.1095,0,.1835.0729.2923.1458.037.0729.1089.1824.1089.3286.037.1458.037.2917.037.4378v8.9027c.0363.6568,0,1.35-.037,2.0069,0,.2553-.072.4741-.1459.6931-.0719.1825-.1814.3283-.3279.4378-.0732.0729-.1828.1095-.2553.1458-.1095.0366-.256.1095-.4019.1462-.1458.1092-.2553.1824-.3279.292-.1095.1458-.1465.3279-.1465.5107,0,.2553.1465.4375.3649.584.1834.0726.3649.1458.5484.1458h3.9399c.2191,0,.4012,0,.584-.1095.1821-.0363.2923-.1828.3642-.2923.0732-.1822.1095-.328.0732-.5108,0-.1458-.0732-.2916-.1451-.4375-.0739-.0732-.2197-.1462-.3293-.2191-.1458-.0729-.3649-.1458-.5108-.2187-.1451-.0366-.3286-.0732-.4744-.1462-.0357-.0363-.0726-.0363-.1095-.1095-.0726-.0729-.1095-.1458-.1815-.2554-.037-.1824-.0739-.4012-.1095-.5836-.0363-.4378-.0739-.8756-.0363-1.3135v-8.6839M12.9984,6.5629h-7.9182c-.256,0-.4745,0-.7298.0729-.1465.0366-.2923.1095-.4018.1824-.072.1095-.1459.2553-.1815.4015-.037.1459-.037.2917,0,.4378.0356.1458.1095.2553.2184.3282.1465.0729.2184.1462.328.2191.1465.0364.2553.1093.3649.1825.0739.0363.1095.1092.1459.1824.0376.0729.0376.1458.0376.2553.0357.1092.0357.2187.0357.292v11.1651c0,.2916-.0357.6202-.1452.8756-.037.1095-.0739.2187-.1465.292-.0733.0363-.1089.0729-.1458.0729-.1465.1458-.328.2553-.4745.3649-.1089.073-.2184.1825-.2923.2917-.1095.2191-.1095.4378-.0356.6568.0726.1459.1815.292.3649.3649.1815.1095.4005.1095.6203.1095h8.8295c1.1673.0363,2.3352-.1824,3.393-.6935,1.3144-.6202,2.2257-1.8608,2.3715-3.32.1465-1.1314-.1458-2.299-.8017-3.2112-.6941-.9485-1.715-1.6054-2.8459-1.7875.8756-.4015,1.6054-1.0218,2.1161-1.8245.6559-1.0947.7654-2.4082.328-3.6124-.328-.7295-.9482-1.35-1.678-1.6783-.8756-.3649-1.7512-.5836-2.7008-.6202h-.6559m-4.0501,9.3771v4.7067l.0356.2191c0,.1459,0,.2191.037.3283.037.1462.1089.2191.2184.292.1095.0366.2191.0729.3293.0729.2191.0366.4745.0729.6929.0729.8756,0,1.7519-.1092,2.5906-.3645.5833-.1462,1.0941-.5111,1.4966-.9489.4368-.5108.6559-1.1677.6202-1.8608.0357-.8393-.293-1.6421-.9495-2.1891-.547-.4744-1.2043-.7298-1.8971-.8393l-.0733.0363c-1.0208.2191-2.0436.4016-3.1006.4745m0-6.7136v4.78c.5833-.0366,1.1666-.1095,1.715-.2191.8017-.1459,1.5684-.4741,2.2257-.9485.9112-.6932,1.3501-1.8608,1.0208-2.9555-.1095-.4378-.4005-.8027-.8393-1.0218-.328-.1824-.6928-.2553-1.0571-.3282-.6579-.0366-1.35-.0729-1.9703-.0366-.2197,0-.4388,0-.6203.0366-.0739,0-.1834.0729-.256.1095-.0733.0729-.1458.1824-.1828.2553,0,.1095-.0356.2553-.0356.3283"/><path class="e" d="m203.6091,14.3696c2.5589,3.5471,4.9784,7.0397,7.3158,10.5345.3859.6049.6324.9334.6895,1.0453.1917.219.3561.3834.5776.468.219.0821.5478.1369.961.1369.5501,0,.9084-.1096,1.1001-.3311.1667-.1917.249-.6597.249-1.4014v-11.2786c0-.55.0545-.9059.1369-1.1001.0548-.1644.1917-.3013.3584-.4382.0548-.0273.1642-.0846.2738-.1119.3584-.1644.5501-.4132.5501-.7145,0-.2465-.0821-.468-.2189-.6049-.1395-.1369-.3311-.2215-.6049-.2215h-3.0541c-.274,0-.5228.0846-.6872.2215-.1394.1096-.2215.301-.2215.5501,0,.3286.1942.6049.6347.7965.1368.0846.2465.1369.3561.1917.1093.0846.2215.2215.3036.4132.0548.2215.0821.4953.0821.8264v7.592c-1.155-1.8444-2.2551-3.5221-3.3555-5.088-1.0729-1.5406-2.0634-2.9173-2.9968-4.127-.0574-.0548-.1122-.1369-.167-.219-.5773-.7718-1.1822-1.1575-1.8146-1.1575h-3.2734c-.2488,0-.4405.0571-.5501.194-.1369.1096-.2215.274-.2215.5228,0,.3561.2215.6049.6347.7693.1369.0548.2465.0821.3286.1394.2192.0795.3586.1917.4132.3286.0823.1369.1096.4132.1096.7965v9.8473c0,.6321-.0273,1.0453-.0821,1.2643-.0821.2218-.1917.3859-.3584.5526-.0548.0275-.2465.0798-.6049.1917-.3561.1369-.5228.3859-.5228.7145,0,.249.0571.4132.194.5228.1371.1096.3561.1667.6324.1667h3.4651c.3584,0,.5773-.0571.6869-.1667.1119-.0821.1942-.2465.1942-.5228,0-.3286-.2215-.5501-.6324-.6869-.1394-.0548-.2487-.0821-.3036-.1096-.2192-.1096-.3859-.2488-.4407-.4132-.0821-.1644-.1369-.4953-.1369-.9908v-9.1031m-5.9691-4.0174h-3.8782c-.3286,0-.5501.0571-.7142.1667-.1369.1096-.2215.2465-.2215.468,0,.2738.1667.5501.4953.7693.1394.0821.2215.1369.2488.1642.0823.0574.1371.1917.1917.3584.0275.1917.0275.4955.0275.9087v10.4795c0,.3834,0,.6321-.0548.7965-.0548.1917-.1096.3036-.1917.3834-.0548.0298-.1394.0846-.2215.1394-.3286.219-.4953.4953-.4953.7417,0,.1942.0545.3584.2215.468.1642.1096.3559.1667.6597.1667h3.878c.3311,0,.5503-.0571.7145-.1667.1394-.0821.2215-.2465.2215-.468,0-.2738-.1642-.5501-.55-.7965-.0821-.0548-.1667-.1096-.1943-.1369-.0821-.0548-.1369-.1942-.1642-.3311-.0275-.1644-.0275-.4953-.0275-.936v-10.507c0-.3558,0-.6321.0548-.7965.0275-.1369.1096-.2763.1942-.3309.0548-.0548.1096-.0823.1644-.1369.3584-.2465.5225-.4955.5225-.7693,0-.1942-.0821-.3584-.2215-.468-.1369-.1096-.3558-.1667-.6597-.1667m-16.5034,10.4522c.2763-.2192.5501-.4382.7991-.6597.2737-.2192.4952-.4109.6869-.6324.9635,1.0456,1.7325,2.0636,2.3922,3.0791.6622,1.0206.9632,1.653.9632,1.9816,0,.0548-.1093.194-.3857.3857-.2465.1644-.3834.4132-.3834.6872,0,.1917.1093.3857.301.4953.167.1644.4132.2215.717.2215h3.9853c.443,0,.7716-.0571.9658-.1942.2189-.1369.301-.3309.301-.6049,0-.3286-.1642-.5773-.4953-.769-.0548-.0275-.0821-.0548-.1096-.0548-.3286-.2215-.55-.4407-.6869-.7168-.0273-.0548-.0273-.0823-.0548-.1096-.7716-1.5408-1.5681-2.8874-2.422-4.0699-.8238-1.1848-1.6777-2.173-2.5291-2.9721.7693-.8241,1.5658-1.7052,2.3922-2.6935.7965-.9632,1.2646-1.486,1.3742-1.5681.1394-.1394.3856-.2763.7167-.4405.5228-.249.7693-.5503.7693-.9087,0-.3036-.1096-.5228-.3311-.6597-.219-.1642-.5475-.2488-1.0155-.2488h-2.8329c-.3584,0-.6321.0846-.8264.2215-.1642.1369-.2738.3584-.2738.6321,0,.1644.0273.274.1096.3859.0273.0821.1369.1917.2462.2465.0574.0548.1122.0821.1942.1093.2738.1394.4106.3039.4106.4955,0,.2488-.468.9632-1.4014,2.0909-.936,1.1549-2.1182,2.4768-3.5769,3.9876v-5.0604c0-.3859.0275-.6597.0846-.8238.0523-.167.1369-.3038.2738-.3859.0275-.0275.1096-.0548.1917-.1096.3587-.2488.5228-.5228.5228-.8812,0-.3286-.0821-.5501-.2737-.687-.1943-.1369-.4953-.2215-.936-.2215h-3.933c-.3308,0-.6049.0846-.7988.2488-.1917.1644-.3013.3561-.3013.6324,0,.4132.219.7142.6597.9084,0,0,.0272,0,.0548.0275.2488.1094.4132.2738.4953.4107.0548.1667.1096.468.1096.8812v10.4522c0,.219-.0275.3558-.0823.468-.0545.1369-.219.2738-.4953.4405-.219.1369-.3859.2465-.4654.3561-.0574.1394-.1122.3036-.1122.4953,0,.219.0823.4132.2763.4953.1644.1371.4109.1942.7692.1942h3.9603c.4132,0,.7417-.0571.9087-.1942.1917-.1093.301-.301.301-.5773,0-.3311-.219-.6049-.6049-.7965-.0548-.0275-.1093-.0548-.1369-.0821-.1917-.1122-.3311-.2218-.3834-.3586-.0571-.1394-.0846-.468-.0846-.936v-2.6134Zm-13.0633,6.0237c1.979,0,3.5746-.5225,4.7568-1.5408,1.2123-1.0181,1.7899-2.3919,1.7899-4.0972,0-.769-.1122-1.4312-.3584-2.0088-.2763-.5773-.6324-1.0703-1.1552-1.5108-.3584-.3039-.7991-.5503-1.2944-.7443-.5228-.1917-1.3466-.3834-2.4467-.6049-1.6232-.3013-2.6137-.6049-3.0269-.9062-.4381-.3311-.6597-.7716-.6597-1.3764,0-.742.2763-1.3469.7988-1.7873.5228-.4132,1.2373-.6324,2.1457-.6324.6049,0,1.1526.1096,1.6504.3586.468.2462.8513.6023,1.1825,1.0703.0545.0821.1369.2215.219.3859.3036.5501.6321.8264.9908.8264.301,0,.4953-.1122.6049-.3038.1093-.1917.1642-.5501.1642-1.0729,0-.5501-.0548-.9632-.1917-1.237-.1369-.2763-.3857-.5228-.7417-.6895-.55-.3013-1.1847-.5478-1.8444-.6872-.6869-.1642-1.4289-.219-2.2278-.219-1.8146,0-3.3009.4953-4.4283,1.486-1.1552,1.018-1.76,2.3101-1.76,3.8509,0,.7417.1369,1.4014.3586,1.9787.1917.5501.5501,1.0456,1.018,1.486.687.6324,1.8694,1.1004,3.5471,1.3742.1917.0548.301.0821.4132.0821,1.5956.3038,2.6384.5801,3.0516.9087.4134.3036.6349.7716.6349,1.3739,0,.7718-.2763,1.3492-.8539,1.7899-.5776.4405-1.3741.6597-2.3945.6597-.7693,0-1.4837-.1644-2.1159-.4955-.6324-.3311-1.1302-.769-1.486-1.3466-.0548-.1394-.1644-.3036-.2763-.5501-.3286-.6597-.6872-.9908-1.0978-.9908-.3584,0-.6622.1096-.8812.3859-.249.2465-.3859.5203-.3859.8513,0,.3584.1369.7417.4132,1.2097.274.468.6324.8536,1.0729,1.2396.5776.493,1.2921.8513,2.0912,1.1001.769.2465,1.705.3834,2.723.3834m-18.5122-5.5832h5.4463c.2465.7693.468,1.4312.6049,2.0088.1644.5776.2465.9607.2465,1.1549,0,.1644-.1369.3584-.3834.5501-.2488.2192-.3857.4407-.3857.7145,0,.219.0821.3859.194.4953.1369.1371.3286.1942.6026.1942h3.9629c.301,0,.55-.0571.7142-.1942.1644-.1093.249-.2763.249-.4953,0-.2465-.1394-.4953-.3859-.7145-.2763-.1917-.4405-.3309-.4953-.3857,0-.0548-.2215-.7693-.6324-2.2005-.4405-1.4014-.936-2.8326-1.4585-4.2914-.6049-1.7598-1.2373-3.3006-1.8146-4.6472-.6051-1.3469-1.0456-2.2281-1.3219-2.6137-.1917-.3013-.4106-.5228-.6321-.6324-.2192-.1096-.5228-.1642-.9635-.1642-.6597,0-1.2645.5225-1.8146,1.5954l-.0821.1371c-.3859.7142-.7965,1.6502-1.2645,2.7778s-.9359,2.4195-1.4312,3.8234c-.3859,1.1001-.8241,2.4195-1.2921,3.9055-.4953,1.4588-.7716,2.2553-.8812,2.4195-.0273.0574-.1917.1644-.468.3859-.2738.1917-.3834.4132-.3834.6597,0,.1942.0548.3584.1917.4405.1369.1371.3311.1942.5503.1942h2.9695c.1667,0,.2763-.0571.3859-.1942.0821-.1093.1394-.2763.1394-.4405,0-.1644-.0301-.2738-.1122-.3834-.0548-.1096-.219-.249-.4132-.4132-.0273-.0273-.082-.0548-.1369-.0846-.1917-.1343-.2738-.3286-.2738-.5202,0-.1942.0545-.4953.1642-.9632.1096-.4407.3311-1.1277.6049-2.1184m.6597-2.0063c.3311-.9908.6622-1.954,1.0181-2.8352.3311-.9062.6895-1.7598,1.0728-2.5839.2192.4955.5501,1.2373.9087,2.1732.3559.9334.7142,2.0336,1.1277,3.2458h-4.1273Zm-19.7755-5.1453l3.3554,8.9414c.2202.5475.4119.9059.5776,1.0976.1654.1942.3857.3038.6334.3038.2465,0,.4667-.1096.6324-.3038.1642-.1917.3571-.5202.5225-1.0155l3.3554-8.7745v8.8566c0,.468-.0273.7965-.0821,1.0155-.0561.2218-.1382.3859-.275.468-.0561.0574-.1654.1122-.2763.1942-.4119.219-.6036.4953-.6036.8241,0,.2215.082.3857.2465.4677.1382.1371.3857.1942.7155.1942h4.1533c.4407,0,.7417-.0571.936-.1942.2192-.1093.3013-.3309.3013-.6049,0-.3036-.1917-.5501-.5776-.7417-.0548-.0273-.1096-.0548-.1369-.0548-.2763-.1392-.4405-.3309-.5228-.5526-.0821-.219-.1382-.6023-.1382-1.1549v-9.8721c0-.3311.0288-.5501.1109-.6895.0821-.1096.1917-.2192.3859-.3013.0273,0,.1093-.0273.1642-.0548.468-.1642.7145-.4405.7145-.8264,0-.3285-.082-.5776-.3013-.7145-.1943-.1642-.4953-.2488-.936-.2488h-3.4936c-.275,0-.494.0846-.6597.2215-.1382.1369-.3298.4953-.5513,1.0453l-2.7493,7.0695-2.5849-6.823c-.2478-.6869-.468-1.1001-.6609-1.2645-.193-.1642-.5501-.2488-1.018-.2488h-3.4377c-.4667,0-.8251.0846-1.0453.2215-.2205.1642-.3298.3834-.3298.7145,0,.3584.2475.6321.7703.8536.1382.0548.2202.0821.3026.1096.1654.0821.275.1917.3298.3286.0548.1394.0821.4132.0821.8812v8.1696c0,1.1822-.0273,1.9265-.0821,2.2826-.0823.3311-.193.5501-.3574.6869-.0548.0548-.1654.1122-.3309.1667-.4942.1917-.7145.468-.7145.8241,0,.2465.0821.4405.2475.5773.1917.1371.4395.1942.7978.1942h3.2448c.3584,0,.6334-.0571.7978-.1942.1654-.1369.2488-.3584.2488-.6049,0-.3857-.3036-.6869-.8812-.8812-.193-.0821-.3571-.1369-.468-.1917-.1642-.0545-.2462-.2763-.3285-.5773-.0558-.3013-.0834-.8539-.0834-1.5684v-8.2517Zm-21.4269,6.7111c.3023-.2192.5773-.4382.8251-.6597.2478-.2192.4953-.4109.6869-.6324.936,1.0456,1.7338,2.0636,2.3935,3.0791.6334,1.0206.9632,1.653.9632,1.9816,0,.0548-.1381.194-.3846.3857-.2488.1644-.3856.4132-.3856.6872,0,.1917.1093.3857.275.4953.193.1644.4392.2215.743.2215h3.9603c.468,0,.7978-.0571.9908-.1942.1917-.1369.3023-.3309.3023-.6049,0-.3286-.1654-.5773-.4953-.769-.0548-.0275-.0821-.0548-.1382-.0548-.3013-.2215-.5215-.4407-.6597-.7168-.0273-.0548-.0548-.0823-.0548-.1096-.7978-1.5408-1.5956-2.8874-2.4207-4.0699-.8251-1.1848-1.6777-2.173-2.5303-2.9721.7705-.8241,1.5684-1.7052,2.3935-2.6935.7978-.9632,1.237-1.486,1.3752-1.5681.1371-.1394.3846-.2763.6872-.4405.5228-.249.7978-.5503.7978-.9087,0-.3036-.1096-.5228-.3298-.6597-.2205-.1642-.5776-.2488-1.018-.2488h-2.8329c-.3584,0-.6597.0846-.8251.2215-.193.1369-.275.3584-.275.6321,0,.1644.0273.274.0821.3859.0548.0821.1657.1917.275.2465.0275.0548.1109.0821.1657.1093.3023.1394.4119.3039.4119.4955,0,.2488-.4667.9632-1.3754,2.0909-.9347,1.1549-2.1457,2.4768-3.6029,3.9876v-5.0604c0-.3859.0285-.6597.0834-.8238.0548-.167.1642-.3038.301-.3859.0275-.0275.0836-.0548.1657-.1096.3584-.2488.5501-.5228.5501-.8812,0-.3286-.0821-.5501-.3025-.687-.1927-.1369-.4953-.2215-.9347-.2215h-3.9328c-.3298,0-.5789.0846-.7705.2488-.193.1644-.3023.3561-.3023.6324,0,.4132.2202.7142.6321.9084.0275,0,.0548,0,.0548.0275.2477.1094.4394.2738.4952.4107.0823.1667.1371.468.1371.8812v10.4522c0,.219-.0548.3558-.0823.468-.0821.1369-.2475.2738-.494.4405-.2491.1369-.3859.2465-.468.3561-.0821.1394-.1096.3036-.1096.4953,0,.219.0811.4132.2465.4953.1644.1371.4407.1942.7978.1942h3.933c.4392,0,.743-.0571.9357-.1942.193-.1093.2753-.301.2753-.5773,0-.3311-.193-.6049-.6061-.7965-.0548-.0275-.1096-.0548-.1369-.0821-.1929-.1122-.3025-.2218-.3574-.3586-.0821-.1394-.1106-.468-.1106-.936v-2.6134Zm-20.9865-2.1159c0,1.4014.275,2.6659.7976,3.8209.5503,1.1575,1.3481,2.0909,2.3387,2.8625.6324.4657,1.3754.8241,2.1444,1.0729.7705.2192,1.6504.3561,2.5864.3561,1.1549,0,2.2278-.1917,3.19-.5776.9357-.3559,1.7611-.936,2.5028-1.6777.275-.2763.468-.5225.6061-.769.1093-.249.1917-.468.1917-.6597,0-.249-.0823-.4407-.2205-.6074-.1369-.1644-.3023-.219-.494-.219-.2477,0-.6061.219-1.0456.6597-.1655.1667-.3023.3036-.3857.3857-.5763.5501-1.1277.9632-1.6764,1.1825-.5503.2488-1.1565.3584-1.8172.3584-1.4562,0-2.6387-.6074-3.4923-1.7873-.8526-1.1848-1.2934-2.7529-1.2934-4.7592,0-2.0363.4132-3.632,1.2385-4.8142.8251-1.1825,1.9527-1.7598,3.3827-1.7598.8812,0,1.6504.2215,2.3659.6869.6885.4405,1.1825,1.0453,1.5123,1.8171.0273.0821.0821.219.1655.4106.1929.5501.4667.7991.8253.7991.2202,0,.4119-.0821.5228-.249.1093-.1642.1642-.4405.1642-.769,0-1.1004-.0273-1.7873-.1096-2.1184-.1093-.3286-.275-.5773-.468-.7417-.6321-.4953-1.4027-.8812-2.3371-1.1549-.9635-.3038-1.9543-.4407-2.9711-.4407-1.4575,0-2.7506.3013-3.9055.936-1.1825.6324-2.1185,1.5383-2.8887,2.7207-.4942.7716-.8513,1.5681-1.0729,2.422-.2478.8238-.3571,1.705-.3571,2.6137m-6.2431,5.9393h-2.2563c-.4667,0-.7417-.0548-.8526-.1644-.1369-.1096-.1929-.3311-.1929-.6597v-5.145h3.439c.4119,0,.8251.1093,1.1835.3584.3846.2215.6324.3584.7417.3584.2478,0,.4407-.0821.5501-.2488.1096-.1371.1644-.4134.1644-.7693v-1.3764c0-.2465-.0548-.468-.1917-.6324-.1096-.1369-.275-.219-.4953-.219-.2192,0-.4667.1093-.7144.301-.0821.0823-.1382.1394-.193.167-.0834.0273-.193.0821-.3846.1093-.1654.0275-.3857.0275-.6061.0275h-3.4936v-3.2461c0-.6321.0833-1.0453.2477-1.2097.1382-.1917.4407-.2738.8799-.2738h1.3767c.7703,0,1.3752.0522,1.8419.1644.468.1094.8526.2738,1.1014.5225.1096.1096.2465.2192.4122.4109.3844.4132.6869.6074.9905.6074.1644,0,.3013-.0574.3846-.1942.0821-.1369.1109-.3584.1109-.6324,0-1.0729-.0834-1.7598-.3038-2.0634-.1917-.3013-.7417-.468-1.6229-.468h-9.1031c-.3311,0-.5786.0571-.7443.1667-.1369.1369-.219.3013-.219.5501,0,.2465.1369.4955.4119.6872.0275.0273.0561.0545.0821.0821.167.1093.249.2189.2763.3036.0275.0821.0548.2465.0548.4132v11.6321c0,.249-.0273.4132-.0821.4953-.0821.1122-.193.1942-.3859.3038-.2202.1369-.3571.2488-.4392.3584-.0561.1096-.0836.2465-.0836.4106,0,.1942.0561.3587.1657.4407.1369.1096.3023.1667.5228.1667h10.7272c.6321,0,1.0441-.1942,1.237-.5251.193-.3561.275-1.0978.275-2.2803,0-.2215-.0548-.3857-.1654-.5225-.1369-.1394-.3025-.1942-.5215-.1942-.3036,0-.6049.1942-.936.6321-.1369.1942-.2478.3311-.3298.4132-.3571.274-.6882.468-1.0729.5776s-.962.1644-1.7873.1644m-15.2661-14.2756h-7.1776c-.4132,0-.7157.0846-.9087.2215-.193.1096-.275.3286-.275.6321,0,.3039.193.5503.5776.7417.1106.0574.193.1096.2475.1394.0548.0548.1109.1369.1371.2465.0285.1096.0558.2465.0558.468v10.6712c0,.3038-.0273.5503-.0821.7417-.0561.2218-.1382.3586-.2478.4134-.0285.0273-.0834.0545-.1382.1119-.468.3013-.6882.6049-.6882.9062,0,.2215.0821.3857.2478.5225.193.1371.4132.1942.6882.1942h8.0315c1.6502,0,2.9435-.3857,3.8782-1.1848.9072-.7966,1.3752-1.8694,1.3752-3.3006,0-.9882-.3298-1.8694-.936-2.6387-.6597-.7716-1.4562-1.2671-2.4743-1.486.8526-.4132,1.4575-.9632,1.8969-1.5956.4132-.6321.6061-1.4014.6061-2.2553,0-1.1549-.4134-2.0086-1.2385-2.641-.8251-.6049-2.0076-.9084-3.5757-.9084m-3.658,8.9685c.3574,0,.7417-.0571,1.1825-.1394.468-.0545,1.018-.1642,1.6777-.3286.8251.1369,1.486.468,1.9267.961.4667.4953.6869,1.13.6869,1.872,0,1.018-.3574,1.7871-1.0456,2.2551-.6869.5228-1.7598.7718-3.1625.7718-.5501,0-.9084-.0574-1.0453-.167-.1382-.1093-.2205-.3584-.2205-.7417v-4.4831Zm0-6.5192c0-.3036.0823-.4952.2205-.5776.1369-.1119.5213-.1369,1.1274-.1369h.3574c1.0729,0,1.8159.1369,2.2551.4382.4132.3311.6337.8812.6337,1.6229,0,.936-.4132,1.6777-1.2385,2.228-.7978.5773-1.9252.9084-3.3554.9905v-4.5652Z"/></g></g></svg>