<?xml version="1.0" encoding="UTF-8"?>
<svg id="Layer_1" xmlns="http://www.w3.org/2000/svg" version="1.1" viewBox="0 0 8351.58 2498.32">
  <!-- Generator: Adobe Illustrator 29.4.0, SVG Export Plug-In . SVG Version: 2.1.0 Build 152)  -->
  <defs>
    <style>
      .st0 {
        fill: #18a24b;
      }

      .st1 {
        fill: #080707;
      }

      .st2 {
        fill: #060505;
      }

      .st3 {
        fill: #090808;
      }

      .st4 {
        fill: #070606;
      }

      .st5 {
        fill: #040404;
      }
    </style>
  </defs>
  <path class="st5" d="M5048.06,940.38c38.64-54.16,71.11-109.3,124.65-151.31,173.61-136.23,478.85-85.07,514.69,157.5,26.04-29.31,42.93-65.84,68.39-95.87,222.37-262.24,618.55-126.31,614.21,222.97l.06,1006.98h-279.3v-994.64c0-5.97-13.82-54.25-17.38-63.21-32.82-82.55-121.74-95.24-199.96-73.24-102.47,28.82-132.2,130.64-148.1,223.95-15.07,301.62-3.17,604.94-6.95,907.14h-273.09v-963.66c0-18.09-10.47-69.25-17.47-87.91-46.94-125.12-225.73-109.57-295.53-13.92-28.88,39.57-59.39,140.7-59.39,188.59v876.9h-279.3V748.27h254.47v192.11Z"/>
  <path class="st4" d="M691.05,351.65v551.55l65.02-86.91c227.64-202.49,515.29-85.7,622.46,178.22,131.96,324.99,99.53,979.35-305.67,1098.65-344.33,101.37-636.13-106.4-655.15-461.54l.25-1279.97h273.09ZM913.43,941.88c-169.79,8.16-213.73,225.24-222.32,361.09-9.4,148.81-12.95,541,170.3,592.09,203.74,56.8,270.81-148.46,288.83-307.18,19.79-174.32,30.03-658.83-236.81-646.01Z"/>
  <path class="st2" d="M7586.54,2080.65h-242.06v-223.1l-47.05,86.26c-219.29,312.41-584.86,174.17-691.75-157.32-117.62-364.77-61.68-1035.42,431.32-1069.48,355.63-24.57,530.52,177.47,549.79,517.46l-.26,846.17ZM6949.45,979.75c-133.92,134.16-122.72,594.62-56.58,761.7,76.4,192.96,292.67,202.48,372.04,8.78,67.38-164.44,74.02-577.01-22.64-729.48-64.76-102.14-205-128.98-292.82-41Z"/>
  <path class="st3" d="M4588.77,1479.53h-744.79c1.12,145.01,36.94,402.71,220.41,421.33,177.44,18.02,250.89-86.56,276.12-247.81h242.06c-15.76,244.39-149.11,425.97-400.4,458.52-325.83,42.2-544.2-145.24-603.25-457.24-77.48-409.4,48.38-978.59,572.19-936.95,387.3,30.78,443.89,450.69,437.66,762.15ZM4315.68,1281.22c-.67-133.45-29.04-318.64-183.6-352.74-210.27-46.39-284.08,187.79-281.9,352.74h465.49Z"/>
  <path class="st1" d="M2596.47,1479.53h-738.58c-1.67,133.91,23.8,349.89,165.98,407.51,67.92,27.53,167.02,19.48,227.07-24.35,72.12-52.64,78.76-133.55,106.58-209.64h232.75c-4.97,242.34-150.59,425.17-394.89,457.82-398.56,53.27-603.34-231.94-623.24-597-21.35-391.48,120.51-834.05,592.88-796.49,381.42,30.33,446.61,454.21,431.46,762.15ZM2329.58,1281.22c-7.61-76.54-8.73-146.17-38.71-218.53-43.64-105.31-138.85-164.03-253.11-131.73-137.41,38.85-177.93,226.24-173.67,350.25h465.49Z"/>
  <path class="st4" d="M3049.54,1051.93l54.8-109.51c101.08-177.63,249.96-244.1,454.18-212.74l-68.36,285.1c-146.98-21.44-304.71,6.57-367.26,156.88-12.65,30.4-36.12,113.15-36.12,143.65v765.35h-279.3V748.27h242.06v303.66Z"/>
  <ellipse class="st0" cx="7944.82" cy="1921.79" rx="177" ry="176.73"/>
</svg>