<?xml version="1.0" encoding="UTF-8"?>
<svg id="Layer_1" xmlns="http://www.w3.org/2000/svg" version="1.1" viewBox="0 0 897.267 198.249">
  <!-- Generator: Adobe Illustrator 29.3.1, SVG Export Plug-In . SVG Version: 2.1.0 Build 151)  -->
  <defs>
    <style>
      .st0 {
        fill: #82afdd;
      }

      .st1 {
        fill: #fff;
      }

      .st2 {
        fill: #1e417c;
      }

      .st3 {
        fill: #c8b05d;
      }
    </style>
  </defs>
  <g>
    <circle class="st0" cx="87.258" cy="87.259" r="87.259"/>
    <circle class="st3" cx="87.258" cy="97.255" r="72.989"/>
    <circle class="st1" cx="87.258" cy="135.283" r="44.589"/>
    <circle class="st2" cx="87.258" cy="137.277" r="28.68"/>
    <polygon class="st2" points="87.258 165.529 83.764 165.529 87.258 198.249 90.751 165.529 87.258 165.529"/>
  </g>
  <g>
    <path class="st2" d="M252.623,88.008h-14.019l-15.253-24.532-5.217,3.743v20.789h-12.346V29.784h12.346v26.643l4.858-6.85,15.771-19.794h13.7l-20.312,25.767,20.471,32.457Z"/>
    <path class="st2" d="M258.478,31.974c0-3.956,2.203-5.934,6.61-5.934s6.611,1.978,6.611,5.934c0,1.886-.552,3.352-1.652,4.401-1.103,1.049-2.755,1.573-4.959,1.573-4.407,0-6.61-1.991-6.61-5.974ZM271.142,88.008h-12.147v-44.525h12.147v44.525Z"/>
    <path class="st2" d="M308.737,42.648c1.646,0,3.013.119,4.102.358l-.916,11.39c-.982-.265-2.177-.398-3.584-.398-3.877,0-6.897.996-9.06,2.987-2.165,1.991-3.246,4.779-3.246,8.363v22.66h-12.147v-44.525h9.199l1.792,7.487h.598c1.38-2.495,3.246-4.506,5.596-6.034,2.35-1.526,4.904-2.29,7.666-2.29Z"/>
    <path class="st2" d="M332.592,63.794l5.296-6.77,12.466-13.541h13.699l-17.682,19.316,18.757,25.209h-14.018l-12.824-18.041-5.217,4.182v13.859h-12.147V26.041h12.147v27.638l-.637,10.115h.159Z"/>
    <path class="st2" d="M391.652,88.805c-7.169,0-12.771-1.978-16.807-5.935-4.035-3.955-6.053-9.558-6.053-16.806,0-7.461,1.865-13.229,5.596-17.304,3.73-4.075,8.887-6.113,15.472-6.113,6.292,0,11.19,1.792,14.695,5.376s5.257,8.536,5.257,14.855v5.895h-28.714c.133,3.451,1.155,6.147,3.066,8.084,1.912,1.938,4.593,2.907,8.045,2.907,2.682,0,5.217-.278,7.606-.836s4.885-1.446,7.487-2.668v9.398c-2.125,1.063-4.395,1.852-6.811,2.369-2.416.519-5.363.777-8.841.777ZM389.939,51.289c-2.575,0-4.593.816-6.053,2.449-1.461,1.633-2.297,3.95-2.509,6.949h17.045c-.054-2.999-.837-5.316-2.35-6.949-1.514-1.633-3.559-2.449-6.134-2.449Z"/>
    <path class="st2" d="M438.447,79.127c2.123,0,4.672-.464,7.646-1.394v9.04c-3.026,1.354-6.743,2.031-11.15,2.031-4.858,0-8.397-1.229-10.613-3.685-2.217-2.455-3.325-6.139-3.325-11.051v-21.466h-5.814v-5.137l6.69-4.063,3.505-9.398h7.766v9.478h12.465v9.12h-12.465v21.466c0,1.726.484,3,1.453,3.823s2.25,1.234,3.844,1.234Z"/>
    <path class="st2" d="M495.556,65.666c0,7.248-1.911,12.917-5.734,17.005-3.823,4.089-9.147,6.134-15.97,6.134-4.275,0-8.045-.937-11.311-2.808-3.266-1.872-5.774-4.561-7.527-8.065-1.752-3.504-2.628-7.593-2.628-12.266,0-7.274,1.897-12.93,5.694-16.965,3.797-4.035,9.134-6.053,16.01-6.053,4.274,0,8.045.93,11.311,2.788,3.266,1.859,5.774,4.527,7.527,8.004,1.752,3.479,2.628,7.554,2.628,12.227ZM464.772,65.666c0,4.407.723,7.74,2.17,9.996,1.447,2.257,3.804,3.385,7.069,3.385,3.238,0,5.568-1.121,6.989-3.365,1.42-2.243,2.13-5.581,2.13-10.016,0-4.407-.717-7.712-2.15-9.916s-3.783-3.306-7.049-3.306c-3.239,0-5.575,1.095-7.009,3.285s-2.15,5.503-2.15,9.937Z"/>
    <path class="st2" d="M530.443,42.648c1.646,0,3.013.119,4.102.358l-.916,11.39c-.982-.265-2.177-.398-3.584-.398-3.877,0-6.897.996-9.06,2.987-2.165,1.991-3.246,4.779-3.246,8.363v22.66h-12.147v-44.525h9.199l1.792,7.487h.598c1.38-2.495,3.246-4.506,5.596-6.034,2.35-1.526,4.904-2.29,7.666-2.29Z"/>
    <path class="st2" d="M581.379,43.484v6.173l-6.969,1.792c1.274,1.991,1.911,4.222,1.911,6.69,0,4.779-1.666,8.503-4.998,11.171-3.332,2.669-7.958,4.003-13.879,4.003l-2.19-.119-1.792-.199c-1.248.955-1.871,2.018-1.871,3.186,0,1.752,2.23,2.629,6.69,2.629h7.566c4.885,0,8.608,1.049,11.171,3.146,2.562,2.098,3.843,5.178,3.843,9.239,0,5.204-2.17,9.24-6.511,12.107-4.341,2.867-10.574,4.301-18.698,4.301-6.213,0-10.959-1.082-14.237-3.246-3.279-2.164-4.918-5.196-4.918-9.1,0-2.682.836-4.925,2.509-6.73,1.673-1.805,4.128-3.093,7.367-3.863-1.248-.53-2.336-1.399-3.266-2.608-.93-1.208-1.394-2.489-1.394-3.843,0-1.699.491-3.112,1.474-4.241.981-1.128,2.402-2.236,4.261-3.325-2.336-1.009-4.188-2.629-5.556-4.859-1.367-2.23-2.051-4.858-2.051-7.885,0-4.858,1.579-8.615,4.739-11.271,3.159-2.655,7.673-3.982,13.541-3.982,1.247,0,2.728.113,4.44.338,1.712.226,2.808.392,3.285.498h15.531ZM547.01,94.3c0,1.673.803,2.987,2.409,3.943,1.606.955,3.856,1.434,6.75,1.434,4.355,0,7.767-.598,10.235-1.792,2.469-1.195,3.704-2.828,3.704-4.898,0-1.673-.731-2.828-2.19-3.465-1.461-.638-3.718-.956-6.771-.956h-6.292c-2.23,0-4.096.523-5.596,1.573-1.5,1.048-2.25,2.436-2.25,4.161ZM551.43,58.06c0,2.416.551,4.328,1.653,5.734,1.102,1.408,2.78,2.111,5.038,2.111,2.282,0,3.955-.703,5.018-2.111,1.062-1.406,1.593-3.318,1.593-5.734,0-5.362-2.204-8.045-6.61-8.045-4.461,0-6.691,2.683-6.691,8.045Z"/>
    <path class="st2" d="M608.858,88.805c-7.169,0-12.771-1.978-16.807-5.935-4.035-3.955-6.053-9.558-6.053-16.806,0-7.461,1.865-13.229,5.596-17.304,3.73-4.075,8.887-6.113,15.472-6.113,6.292,0,11.19,1.792,14.695,5.376s5.257,8.536,5.257,14.855v5.895h-28.714c.133,3.451,1.155,6.147,3.066,8.084,1.912,1.938,4.593,2.907,8.045,2.907,2.682,0,5.217-.278,7.606-.836s4.885-1.446,7.487-2.668v9.398c-2.125,1.063-4.395,1.852-6.811,2.369-2.416.519-5.363.777-8.841.777ZM607.145,51.289c-2.575,0-4.593.816-6.053,2.449-1.461,1.633-2.297,3.95-2.509,6.949h17.045c-.054-2.999-.837-5.316-2.35-6.949-1.514-1.633-3.559-2.449-6.134-2.449Z"/>
    <path class="st2" d="M655.652,79.127c2.123,0,4.672-.464,7.646-1.394v9.04c-3.026,1.354-6.743,2.031-11.15,2.031-4.858,0-8.397-1.229-10.613-3.685-2.217-2.455-3.325-6.139-3.325-11.051v-21.466h-5.814v-5.137l6.69-4.063,3.505-9.398h7.766v9.478h12.465v9.12h-12.465v21.466c0,1.726.484,3,1.453,3.823s2.25,1.234,3.844,1.234Z"/>
    <path class="st2" d="M730.085,88.008l-4.221-13.859h-21.228l-4.221,13.859h-13.302l20.55-58.463h15.094l20.629,58.463h-13.302ZM722.917,63.794c-3.903-12.558-6.101-19.66-6.591-21.306-.492-1.646-.844-2.947-1.056-3.903-.876,3.399-3.385,11.802-7.527,25.209h15.174Z"/>
    <path class="st2" d="M785.083,71.839c0,5.257-1.892,9.398-5.675,12.426-3.783,3.026-9.047,4.54-15.79,4.54-6.213,0-11.709-1.168-16.488-3.505v-11.47c3.93,1.752,7.255,2.987,9.977,3.704,2.721.717,5.21,1.075,7.467,1.075,2.708,0,4.785-.518,6.232-1.554,1.447-1.035,2.171-2.574,2.171-4.619,0-1.142-.318-2.157-.956-3.047-.637-.89-1.573-1.745-2.808-2.568s-3.75-2.137-7.547-3.943c-3.558-1.672-6.226-3.278-8.005-4.818-1.778-1.539-3.199-3.332-4.261-5.376-1.063-2.045-1.593-4.434-1.593-7.169,0-5.15,1.745-9.2,5.236-12.147,3.491-2.947,8.316-4.42,14.477-4.42,3.026,0,5.914.358,8.662,1.075s5.621,1.726,8.622,3.026l-3.982,9.598c-3.106-1.274-5.675-2.164-7.706-2.668-2.031-.504-4.029-.757-5.994-.757-2.336,0-4.129.544-5.376,1.633-1.248,1.089-1.872,2.509-1.872,4.261,0,1.089.252,2.038.757,2.848.504.81,1.308,1.594,2.409,2.35,1.102.757,3.71,2.117,7.826,4.082,5.442,2.603,9.173,5.211,11.19,7.826s3.026,5.821,3.026,9.617Z"/>
  </g>
  <g>
    <path class="st2" d="M229.686,159.666h-4.168l-17.164-26.358h-.172c.229,3.093.344,5.929.344,8.507v17.852h-3.372v-31.407h4.124l17.121,26.252h.172c-.028-.387-.093-1.63-.193-3.728-.1-2.098-.136-3.599-.107-4.501v-18.024h3.416v31.407Z"/>
    <path class="st2" d="M258.107,147.872c0,3.839-.966,6.835-2.899,8.99-1.934,2.156-4.605,3.233-8.013,3.233-2.105,0-3.975-.494-5.607-1.482s-2.893-2.406-3.78-4.253c-.889-1.848-1.332-4.01-1.332-6.488,0-3.838.959-6.827,2.878-8.969,1.919-2.141,4.583-3.212,7.992-3.212,3.293,0,5.91,1.096,7.852,3.287,1.94,2.191,2.91,5.156,2.91,8.894ZM240.169,147.872c0,3.008.602,5.299,1.805,6.875,1.203,1.575,2.972,2.362,5.307,2.362s4.106-.784,5.316-2.352c1.21-1.568,1.815-3.863,1.815-6.886,0-2.993-.605-5.267-1.815-6.82s-2.997-2.331-5.359-2.331c-2.335,0-4.097.767-5.285,2.299s-1.783,3.816-1.783,6.853Z"/>
    <path class="st2" d="M275.099,135.691c1.046,0,1.983.086,2.814.258l-.494,3.309c-.974-.215-1.833-.322-2.577-.322-1.905,0-3.534.773-4.888,2.32s-2.03,3.473-2.03,5.778v12.632h-3.565v-23.545h2.942l.408,4.361h.172c.874-1.532,1.926-2.714,3.158-3.545,1.231-.83,2.585-1.246,4.06-1.246Z"/>
    <path class="st2" d="M293.058,135.691c1.046,0,1.983.086,2.814.258l-.494,3.309c-.974-.215-1.833-.322-2.577-.322-1.905,0-3.534.773-4.888,2.32s-2.03,3.473-2.03,5.778v12.632h-3.565v-23.545h2.942l.408,4.361h.172c.874-1.532,1.926-2.714,3.158-3.545,1.231-.83,2.585-1.246,4.06-1.246Z"/>
    <path class="st2" d="M319.717,147.872c0,3.839-.966,6.835-2.899,8.99-1.934,2.156-4.605,3.233-8.013,3.233-2.206,0-4.111-.494-5.715-1.482l-1.805,2.514-2.448-1.676,2.019-2.814c-1.847-2.177-2.771-5.098-2.771-8.765,0-3.838.959-6.827,2.878-8.969,1.919-2.141,4.583-3.212,7.992-3.212,2.205,0,4.139.545,5.8,1.633l1.805-2.556,2.514,1.632-2.084,2.857c1.818,2.177,2.728,5.049,2.728,8.614ZM301.78,147.872c0,2.449.38,4.404,1.139,5.865l9.989-13.878c-1.074-.759-2.428-1.139-4.06-1.139-2.335,0-4.097.767-5.285,2.299s-1.783,3.816-1.783,6.853ZM316.023,147.872c0-2.349-.365-4.239-1.096-5.671l-9.989,13.813c1.017.73,2.334,1.096,3.953,1.096,2.334,0,4.106-.784,5.316-2.352,1.21-1.568,1.815-3.863,1.815-6.886Z"/>
    <path class="st2" d="M342.081,159.666v-15.231c0-1.919-.438-3.352-1.311-4.297-.874-.945-2.241-1.418-4.104-1.418-2.463,0-4.268.666-5.413,1.998s-1.719,3.53-1.719,6.595v12.353h-3.565v-23.545h2.899l.58,3.223h.172c.73-1.16,1.754-2.059,3.072-2.696,1.317-.637,2.785-.956,4.403-.956,2.836,0,4.97.685,6.402,2.052,1.432,1.368,2.148,3.556,2.148,6.564v15.359h-3.566Z"/>
    <path class="st2" d="M367.452,159.666l-.709-3.352h-.172c-1.174,1.476-2.345,2.475-3.512,2.997-1.168.522-2.625.784-4.372.784-2.335,0-4.164-.602-5.488-1.805-1.325-1.203-1.987-2.914-1.987-5.134,0-4.755,3.802-7.247,11.407-7.477l3.995-.129v-1.46c0-1.848-.397-3.212-1.192-4.093s-2.065-1.321-3.813-1.321c-1.963,0-4.183.602-6.66,1.805l-1.095-2.729c1.159-.63,2.431-1.124,3.813-1.482,1.382-.357,2.768-.537,4.157-.537,2.807,0,4.887.623,6.24,1.869s2.03,3.244,2.03,5.994v16.068h-2.643ZM359.396,157.152c2.22,0,3.964-.608,5.23-1.826,1.268-1.217,1.901-2.921,1.901-5.112v-2.127l-3.565.15c-2.836.101-4.881.541-6.134,1.321-1.253.781-1.88,1.994-1.88,3.642,0,1.289.391,2.27,1.171,2.942.78.674,1.873,1.01,3.276,1.01Z"/>
    <path class="st2" d="M407.13,151.309c0,2.764-1.003,4.919-3.008,6.466s-4.726,2.32-8.163,2.32c-3.724,0-6.588-.479-8.593-1.439v-3.523c1.289.545,2.692.975,4.21,1.289,1.519.315,3.021.473,4.512.473,2.435,0,4.268-.462,5.499-1.386,1.231-.923,1.848-2.209,1.848-3.855,0-1.088-.219-1.979-.655-2.675-.437-.694-1.167-1.335-2.191-1.923-1.023-.587-2.581-1.253-4.672-1.997-2.922-1.046-5.009-2.284-6.262-3.717-1.254-1.432-1.88-3.301-1.88-5.607,0-2.42.909-4.346,2.728-5.778,1.819-1.432,4.225-2.148,7.219-2.148,3.122,0,5.993.573,8.614,1.719l-1.139,3.18c-2.593-1.089-5.113-1.633-7.562-1.633-1.934,0-3.445.415-4.533,1.246-1.089.831-1.633,1.983-1.633,3.458,0,1.089.201,1.98.602,2.675.401.695,1.078,1.332,2.03,1.912s2.409,1.221,4.372,1.923c3.293,1.174,5.56,2.435,6.799,3.78,1.238,1.347,1.858,3.094,1.858,5.242Z"/>
    <path class="st2" d="M427.494,159.666l-.709-3.352h-.172c-1.174,1.476-2.345,2.475-3.512,2.997-1.168.522-2.625.784-4.372.784-2.335,0-4.164-.602-5.488-1.805-1.325-1.203-1.987-2.914-1.987-5.134,0-4.755,3.802-7.247,11.407-7.477l3.995-.129v-1.46c0-1.848-.397-3.212-1.192-4.093s-2.065-1.321-3.813-1.321c-1.963,0-4.183.602-6.66,1.805l-1.095-2.729c1.159-.63,2.431-1.124,3.813-1.482,1.382-.357,2.768-.537,4.157-.537,2.807,0,4.887.623,6.24,1.869s2.03,3.244,2.03,5.994v16.068h-2.643ZM419.438,157.152c2.22,0,3.964-.608,5.23-1.826,1.268-1.217,1.901-2.921,1.901-5.112v-2.127l-3.565.15c-2.836.101-4.881.541-6.134,1.321-1.253.781-1.88,1.994-1.88,3.642,0,1.289.391,2.27,1.171,2.942.78.674,1.873,1.01,3.276,1.01Z"/>
    <path class="st2" d="M441.05,159.666h-3.565v-33.427h3.565v33.427Z"/>
    <path class="st2" d="M467.882,136.121v2.256l-4.361.516c.4.502.759,1.157,1.074,1.966.314.81.473,1.723.473,2.739,0,2.306-.788,4.146-2.363,5.521-1.575,1.375-3.737,2.063-6.487,2.063-.702,0-1.361-.058-1.977-.172-1.519.802-2.277,1.812-2.277,3.029,0,.645.265,1.12.795,1.428.53.309,1.439.462,2.729.462h4.167c2.55,0,4.508.537,5.876,1.611,1.367,1.074,2.052,2.635,2.052,4.684,0,2.606-1.046,4.593-3.137,5.961-2.091,1.367-5.142,2.052-9.151,2.052-3.079,0-5.453-.573-7.121-1.719-1.669-1.146-2.503-2.764-2.503-4.855,0-1.433.458-2.672,1.375-3.717.916-1.045,2.205-1.754,3.866-2.127-.602-.271-1.106-.694-1.514-1.268-.408-.572-.612-1.238-.612-1.997,0-.859.229-1.611.688-2.256.458-.645,1.181-1.268,2.169-1.869-1.217-.501-2.209-1.354-2.975-2.557-.767-1.203-1.149-2.578-1.149-4.124,0-2.578.773-4.565,2.319-5.962,1.547-1.396,3.738-2.095,6.574-2.095,1.231,0,2.342.144,3.329.43h8.143ZM449.107,163.619c0,1.274.536,2.241,1.61,2.899,1.074.659,2.614.988,4.619.988,2.993,0,5.209-.447,6.648-1.343,1.439-.895,2.159-2.108,2.159-3.641,0-1.275-.395-2.159-1.182-2.653-.788-.494-2.27-.741-4.446-.741h-4.275c-1.618,0-2.879.387-3.781,1.16-.901.773-1.353,1.883-1.353,3.33ZM451.039,143.662c0,1.646.466,2.893,1.396,3.737.931.846,2.227,1.268,3.889,1.268,3.48,0,5.22-1.689,5.22-5.069,0-3.537-1.762-5.307-5.284-5.307-1.676,0-2.965.451-3.867,1.354s-1.354,2.241-1.354,4.018Z"/>
    <path class="st2" d="M482.124,149.505v-3.266h18.475v3.266h-18.475Z"/>
    <path class="st2" d="M535.83,151.309c0,2.764-1.003,4.919-3.008,6.466s-4.726,2.32-8.163,2.32c-3.724,0-6.588-.479-8.593-1.439v-3.523c1.289.545,2.692.975,4.21,1.289,1.519.315,3.021.473,4.512.473,2.435,0,4.268-.462,5.499-1.386,1.231-.923,1.848-2.209,1.848-3.855,0-1.088-.219-1.979-.655-2.675-.437-.694-1.167-1.335-2.191-1.923-1.023-.587-2.581-1.253-4.672-1.997-2.922-1.046-5.009-2.284-6.262-3.717-1.254-1.432-1.88-3.301-1.88-5.607,0-2.42.909-4.346,2.728-5.778,1.819-1.432,4.225-2.148,7.219-2.148,3.122,0,5.993.573,8.614,1.719l-1.139,3.18c-2.593-1.089-5.113-1.633-7.562-1.633-1.934,0-3.445.415-4.533,1.246-1.089.831-1.633,1.983-1.633,3.458,0,1.089.201,1.98.602,2.675.401.695,1.078,1.332,2.03,1.912s2.409,1.221,4.372,1.923c3.293,1.174,5.56,2.435,6.799,3.78,1.238,1.347,1.858,3.094,1.858,5.242Z"/>
    <path class="st2" d="M556.195,159.666l-.709-3.352h-.172c-1.174,1.476-2.345,2.475-3.512,2.997-1.168.522-2.625.784-4.372.784-2.335,0-4.164-.602-5.488-1.805-1.325-1.203-1.987-2.914-1.987-5.134,0-4.755,3.802-7.247,11.407-7.477l3.995-.129v-1.46c0-1.848-.397-3.212-1.192-4.093s-2.065-1.321-3.813-1.321c-1.963,0-4.183.602-6.66,1.805l-1.095-2.729c1.159-.63,2.431-1.124,3.813-1.482,1.382-.357,2.768-.537,4.157-.537,2.807,0,4.887.623,6.24,1.869s2.03,3.244,2.03,5.994v16.068h-2.643ZM548.139,157.152c2.22,0,3.964-.608,5.23-1.826,1.268-1.217,1.901-2.921,1.901-5.112v-2.127l-3.565.15c-2.836.101-4.881.541-6.134,1.321-1.253.781-1.88,1.994-1.88,3.642,0,1.289.391,2.27,1.171,2.942.78.674,1.873,1.01,3.276,1.01Z"/>
    <path class="st2" d="M571.339,159.666l-8.937-23.545h3.824l5.069,13.964c1.146,3.266,1.818,5.385,2.02,6.358h.172c.157-.759.655-2.33,1.493-4.715s2.717-7.587,5.639-15.607h3.824l-8.937,23.545h-4.168Z"/>
    <path class="st2" d="M587.924,129.741c0-.816.2-1.414.602-1.794.4-.379.901-.569,1.503-.569.573,0,1.067.193,1.482.58s.623.981.623,1.783-.208,1.4-.623,1.794-.909.591-1.482.591c-.602,0-1.103-.197-1.503-.591-.401-.394-.602-.991-.602-1.794ZM591.791,159.666h-3.565v-23.545h3.565v23.545Z"/>
    <path class="st2" d="M602.919,159.666h-3.565v-33.427h3.565v33.427Z"/>
    <path class="st2" d="M620.428,160.095c-3.48,0-6.227-1.06-8.239-3.18-2.012-2.119-3.018-5.063-3.018-8.829,0-3.795.935-6.81,2.803-9.044,1.869-2.234,4.379-3.352,7.53-3.352,2.95,0,5.284.971,7.003,2.911,1.719,1.941,2.578,4.501,2.578,7.68v2.256h-16.22c.072,2.765.77,4.862,2.095,6.295,1.324,1.432,3.19,2.147,5.597,2.147,2.534,0,5.04-.529,7.519-1.59v3.18c-1.261.545-2.453.935-3.577,1.171s-2.481.354-4.07.354ZM619.461,138.677c-1.891,0-3.398.616-4.522,1.848s-1.786,2.936-1.987,5.112h12.31c0-2.248-.501-3.97-1.504-5.166-1.002-1.195-2.435-1.794-4.296-1.794Z"/>
    <path class="st2" d="M650.781,146.604v13.062h-3.651v-31.407h8.614c3.852,0,6.698.738,8.539,2.213,1.84,1.476,2.76,3.695,2.76,6.659,0,4.153-2.105,6.961-6.315,8.421l8.528,14.114h-4.317l-7.605-13.062h-6.552ZM650.781,143.468h5.006c2.577,0,4.468-.512,5.671-1.536,1.203-1.023,1.805-2.56,1.805-4.608,0-2.076-.612-3.573-1.837-4.489-1.225-.917-3.19-1.375-5.897-1.375h-4.748v12.009Z"/>
    <path class="st2" d="M694.11,147.872c0,3.839-.966,6.835-2.899,8.99-1.934,2.156-4.605,3.233-8.013,3.233-2.105,0-3.975-.494-5.607-1.482s-2.893-2.406-3.78-4.253c-.889-1.848-1.332-4.01-1.332-6.488,0-3.838.959-6.827,2.878-8.969,1.919-2.141,4.583-3.212,7.992-3.212,3.293,0,5.91,1.096,7.852,3.287,1.94,2.191,2.91,5.156,2.91,8.894ZM676.173,147.872c0,3.008.602,5.299,1.805,6.875,1.203,1.575,2.972,2.362,5.307,2.362s4.106-.784,5.316-2.352c1.21-1.568,1.815-3.863,1.815-6.886,0-2.993-.605-5.267-1.815-6.82s-2.997-2.331-5.359-2.331c-2.335,0-4.097.767-5.285,2.299s-1.783,3.816-1.783,6.853Z"/>
    <path class="st2" d="M718.708,159.666l-4.318-13.814c-.272-.845-.78-2.764-1.525-5.757h-.172c-.572,2.507-1.074,4.439-1.504,5.8l-4.446,13.771h-4.125l-6.423-23.545h3.738c1.518,5.915,2.674,10.419,3.469,13.513s1.25,5.178,1.364,6.251h.172c.157-.816.411-1.872.763-3.168.351-1.296.655-2.323.913-3.083l4.317-13.513h3.867l4.211,13.513c.802,2.464,1.346,4.533,1.632,6.208h.172c.058-.516.212-1.31.462-2.384.251-1.074,1.744-6.854,4.48-17.337h3.694l-6.509,23.545h-4.231Z"/>
    <path class="st2" d="M743.113,149.505v-3.266h18.475v3.266h-18.475Z"/>
    <path class="st2" d="M801.78,159.666h-4.296l-11.45-15.231-3.287,2.921v12.31h-3.651v-31.407h3.651v15.575l14.243-15.575h4.317l-12.631,13.642,13.104,17.766Z"/>
    <path class="st2" d="M825.882,147.872c0,3.839-.966,6.835-2.899,8.99-1.934,2.156-4.605,3.233-8.013,3.233-2.105,0-3.975-.494-5.607-1.482s-2.893-2.406-3.78-4.253c-.889-1.848-1.332-4.01-1.332-6.488,0-3.838.959-6.827,2.878-8.969,1.919-2.141,4.583-3.212,7.992-3.212,3.293,0,5.91,1.096,7.852,3.287,1.94,2.191,2.91,5.156,2.91,8.894ZM807.945,147.872c0,3.008.602,5.299,1.805,6.875,1.203,1.575,2.972,2.362,5.307,2.362s4.106-.784,5.316-2.352c1.21-1.568,1.815-3.863,1.815-6.886,0-2.993-.605-5.267-1.815-6.82s-2.997-2.331-5.359-2.331c-2.335,0-4.097.767-5.285,2.299s-1.783,3.816-1.783,6.853Z"/>
    <path class="st2" d="M848.247,159.666v-15.231c0-1.919-.438-3.352-1.311-4.297-.874-.945-2.241-1.418-4.104-1.418-2.463,0-4.268.666-5.413,1.998s-1.719,3.53-1.719,6.595v12.353h-3.565v-23.545h2.899l.58,3.223h.172c.73-1.16,1.754-2.059,3.072-2.696,1.317-.637,2.785-.956,4.403-.956,2.836,0,4.97.685,6.402,2.052,1.432,1.368,2.148,3.556,2.148,6.564v15.359h-3.566Z"/>
    <path class="st2" d="M878.365,159.666l-4.318-13.814c-.272-.845-.78-2.764-1.525-5.757h-.172c-.572,2.507-1.074,4.439-1.504,5.8l-4.446,13.771h-4.125l-6.423-23.545h3.738c1.518,5.915,2.674,10.419,3.469,13.513s1.25,5.178,1.364,6.251h.172c.157-.816.411-1.872.763-3.168.351-1.296.655-2.323.913-3.083l4.317-13.513h3.867l4.211,13.513c.802,2.464,1.346,4.533,1.632,6.208h.172c.058-.516.212-1.31.462-2.384.251-1.074,1.744-6.854,4.48-17.337h3.694l-6.509,23.545h-4.231Z"/>
    <path class="st2" d="M893.058,129.741c0-.816.2-1.414.602-1.794.4-.379.901-.569,1.503-.569.573,0,1.067.193,1.482.58s.623.981.623,1.783-.208,1.4-.623,1.794-.909.591-1.482.591c-.602,0-1.103-.197-1.503-.591-.401-.394-.602-.991-.602-1.794ZM896.925,159.666h-3.565v-23.545h3.565v23.545Z"/>
  </g>
</svg>