<?xml version="1.0" encoding="UTF-8"?><svg id="Layer_2" xmlns="http://www.w3.org/2000/svg" viewBox="0 0 684.84 370.48"><defs><style>.cls-1{fill:#3e5b21;}.cls-1,.cls-2,.cls-3,.cls-4{stroke-width:0px;}.cls-2{fill:#cd0704;}.cls-3{fill:#000;}.cls-4{fill:#010203;}</style></defs><g id="Layer_1-2"><path class="cls-4" d="M64.93,170.49c-17.59,0-32.76-5.32-45.09-15.8C6.77,143.79.14,130.24.14,114.42v-10.12h32.65v10.12c0,6.6,2.77,12.01,8.72,17.01,6.46,5.21,14.12,7.75,23.42,7.75,11.09,0,19.98-2.36,26.43-7.02,5.49-4.3,8.04-9.51,8.04-16.39,0-1.59,0-5.79-7.93-10.83-7.14-4.29-17.18-7.07-29.83-8.26-17.09-1.51-31.09-6.52-41.56-14.89C8.41,72.66,2.49,61.07,2.49,47.35c0-15.06,6.23-27.43,18.03-35.76C31.37,3.9,46.32,0,64.93,0s32.74,4.15,43.86,12.34c12.15,8.78,18.57,21.24,18.57,36.02v10.12h-31.32l-1.5-8.33c-1.1-6.14-3.85-10.59-8.65-14-5.15-3.66-12.21-5.51-20.96-5.51-9.93,0-17.7,1.88-23.1,5.6-4.39,3.02-6.35,6.44-6.35,11.1,0,1.57,0,5.76,8.25,10.83,7.07,4.28,17.14,7.08,29.85,8.27,16.92,1.5,30.98,6.79,41.72,15.69l.1.08c11.27,9.58,16.99,21.77,16.99,36.23,0,15.86-6.88,29.24-19.91,38.68-12,8.86-28,13.36-47.55,13.36Z"/><path class="cls-4" d="M229.71,170.49c-21.94,0-39.84-8.09-53.21-24.05l-.04-.05c-12.91-15.63-19.45-36.2-19.45-61.15s6.54-45.52,19.45-61.15C189.85,8.09,207.76,0,229.71,0s39.56,7.43,52.92,22.07c13.12,14.37,19.77,33.52,19.77,56.9v16.24h-111.77c1.25,12.17,4.91,22.15,10.9,29.75,7.1,9,16.32,13.38,28.18,13.38,9.31,0,17.45-2.38,24.89-7.27,7.42-4.94,13.11-17.83,15.93-25.74h31.93c-2.63,15.6-11.28,40.27-25.32,50.4-13.56,9.8-29.52,14.77-47.43,14.77ZM191.23,62.72h77.19c-1.74-7.96-5.64-14.77-11.83-20.7-7.84-7.09-16.64-10.54-26.89-10.54s-18.86,3.53-26.48,10.78c-6.14,5.85-10.1,12.59-12,20.46Z"/><rect class="cls-2" y="203.19" width="507.07" height="16"/><path class="cls-2" d="M511.57,223.69H0v-25h522.45s-10.87,25-10.87,25Z"/><path class="cls-3" d="M6.61,360.38v-99.22h9.32v16.77c2.8-5.9,6.75-10.56,11.87-13.97,5.13-3.57,10.63-5.36,16.54-5.36,6.99,0,13.12,1.87,18.4,5.59,5.44,3.88,8.93,8.78,10.49,14.67,2.94-6.2,7.37-11.1,13.28-14.67,6.06-3.73,12.66-5.59,19.8-5.59,8.85,0,16.46,3.03,22.82,9.08,6.21,6.06,9.32,13.35,9.32,21.9v70.81h-9.32v-70.81c0-6.52-2.25-12.11-6.75-16.78-4.35-4.66-9.7-6.99-16.07-6.99-7.3,0-13.82,2.56-19.56,7.69-5.75,5.12-9.32,11.64-10.71,19.56v67.31h-9.32v-70.81c0-6.52-2.1-12.11-6.29-16.78-4.2-4.66-9.24-6.99-15.14-6.99-6.99,0-13.28,2.72-18.87,8.16-5.44,5.59-8.93,12.58-10.48,20.96v65.45H6.61Z"/><path class="cls-3" d="M145.04,366.99h-22.53v-77.41c0-4.78-1.6-8.77-4.9-12.19l-.08-.08c-3.11-3.33-6.68-4.89-11.24-4.89-5.67,0-10.63,1.97-15.16,6.01-4.52,4.03-7.31,9.02-8.51,15.24v73.32h-22.53v-77.41c0-4.88-1.5-8.92-4.6-12.36-2.95-3.27-6.2-4.8-10.23-4.8-5.22,0-9.86,2.04-14.2,6.22-4.39,4.54-7.19,10.08-8.54,16.91v71.43H0v-112.44h22.53v5.03c.5-.37,1.02-.74,1.54-1.09,6.22-4.32,13.04-6.51,20.26-6.51,8.34,0,15.82,2.29,22.21,6.8,2.95,2.11,5.45,4.48,7.49,7.1,2.6-2.83,5.62-5.29,9.04-7.36,7.05-4.33,14.87-6.55,23.22-6.55,10.56,0,19.77,3.67,27.38,10.91,7.56,7.38,11.37,16.33,11.37,26.68v77.41Z"/><path class="cls-3" d="M245.84,368.01c0-3.98.12-17.49.12-21.84-1.87,5.27-5.82,9.55-11.88,12.81-6.06,3.26-13.04,4.89-20.97,4.89-9.78,0-18.09-2.72-24.92-8.15-6.99-5.59-10.48-12.27-10.48-20.04s3.42-13.97,10.25-19.56c6.68-5.59,15.06-8.85,25.16-9.78,9.78-.93,17.78-2.48,23.99-4.66,6.37-2.18,9.55-4.74,9.55-7.69v-8.85c0-5.12-2.8-9.47-8.39-13.04-5.44-3.57-12.11-5.35-20.03-5.35-7.45,0-13.9,1.7-19.33,5.12-5.28,3.58-7.92,7.77-7.92,12.58v5.13h-8.85v-6.06c0-6.68,3.49-12.35,10.48-17.01,7.14-4.66,15.68-6.99,25.62-6.99s19.02,2.25,26.32,6.75c7.3,4.51,10.95,9.94,10.95,16.31v85.3M235.01,348.73c6.37-5.27,10.25-12.03,11.65-20.26v-22.82c-2.18,1.86-6.13,3.42-11.88,4.66-5.44,1.25-12.66,2.25-21.66,3.03-7.3.63-13.43,3.11-18.4,7.46-4.96,4.19-7.45,9.16-7.45,14.9s2.56,10.87,7.69,14.91c4.96,4.19,11.02,6.29,18.16,6.29,8.23,0,15.53-2.72,21.9-8.16Z"/><path class="cls-3" d="M213.11,370.48c-11.27,0-21.03-3.22-29.03-9.58-8.62-6.9-12.98-15.37-12.98-25.21s4.26-17.8,12.67-24.68c7.64-6.4,17.32-10.2,28.73-11.25,9.2-.87,16.75-2.33,22.42-4.31,3.11-1.06,4.54-1.96,5.13-2.41v-7.9c0-1.74-.55-4.42-5.34-7.48-4.38-2.88-9.9-4.31-16.47-4.31-6.2,0-11.35,1.32-15.72,4.05-4.42,3.02-4.93,5.46-4.93,7.04v11.73h-22.06v-12.66c0-6.18,2.33-15.1,13.42-22.5,8.26-5.39,18.1-8.1,29.29-8.1s21.46,2.6,29.79,7.74c11.65,7.19,14.09,15.9,14.09,21.93v85.3h-9.67s0,.08,0,.13h-13.21c0-.98,0-2.53.02-4.38-.66.4-1.34.79-2.04,1.17-7,3.77-15.1,5.68-24.1,5.68ZM240.05,315.82c-1.21.33-2.5.65-3.88.95-5.69,1.31-13.08,2.34-22.49,3.15-5.92.51-10.7,2.42-14.62,5.85l-.09.08c-3.48,2.94-5.1,6.07-5.1,9.85s1.64,6.94,5.17,9.72l.18.14c3.77,3.18,8.32,4.73,13.9,4.73,6.67,0,12.43-2.15,17.6-6.57l.08-.06c5.02-4.16,8.05-9.32,9.26-15.76v-12.07Z"/><path class="cls-3" d="M306.74,353.63c-7.46-6.21-11.18-13.74-11.18-22.59h8.62c0,6.68,2.87,12.42,8.62,17.23,5.74,4.66,12.65,6.99,20.73,6.99,9.32,0,16.85-2.09,22.59-6.29,5.59-4.35,8.39-10.01,8.39-17,0-5.27-2.95-9.78-8.85-13.51-5.9-3.57-13.82-5.82-23.75-6.75-10.56-.94-18.95-3.88-25.16-8.85-6.37-4.96-9.55-11.1-9.55-18.4,0-8.23,3.18-14.59,9.55-19.1,6.36-4.5,15.29-6.75,26.78-6.75s19.8,2.41,26.32,7.22c6.68,4.82,10.02,11.26,10.02,19.33h-8.85c-1.09-6.06-4.04-10.79-8.85-14.2-4.82-3.42-11.03-5.13-18.63-5.13-8.39,0-15.06,1.71-20.03,5.13-4.97,3.42-7.46,7.92-7.46,13.51,0,5.28,3.03,9.78,9.08,13.51,5.9,3.58,13.82,5.82,23.76,6.75,10.4.94,18.78,4.04,25.16,9.32,6.2,5.28,9.32,11.88,9.32,19.8,0,8.85-3.66,15.92-10.95,21.19-7.14,5.28-16.77,7.92-28.88,7.92-10.56,0-19.49-3.11-26.78-9.32Z"/><path class="cls-3" d="M333.52,369.55c-12.11,0-22.55-3.66-31.04-10.87-8.98-7.49-13.54-16.79-13.54-27.65v-6.61h21.83v6.61c0,4.73,1.99,8.6,6.25,12.17,4.49,3.64,9.9,5.45,16.49,5.45,7.8,0,14.06-1.67,18.62-4.96,3.93-3.08,5.76-6.81,5.76-11.72,0-1.83-.59-4.63-5.72-7.89-5.01-3.02-12.04-4.97-20.9-5.8-11.82-1.05-21.47-4.51-28.67-10.27-7.96-6.2-12.03-14.14-12.03-23.56,0-10.31,4.27-18.79,12.34-24.49,7.47-5.29,17.76-7.97,30.6-7.97s22.58,2.86,30.24,8.51c8.29,5.98,12.71,14.52,12.71,24.65v6.61h-20.98l-.98-5.44c-.79-4.38-2.75-7.56-6.18-9.99-3.66-2.59-8.64-3.91-14.81-3.91-6.98,0-12.46,1.33-16.28,3.96-3.18,2.18-4.6,4.67-4.6,8.06,0,1.16,0,4.23,5.94,7.88,4.97,3.01,12.02,4.97,20.91,5.8,11.68,1.05,21.36,4.69,28.75,10.8,7.8,6.64,11.71,14.99,11.71,24.89,0,10.89-4.73,20.07-13.69,26.55-8.21,6.07-19.25,9.18-32.75,9.18Z"/><path class="cls-3" d="M416.06,360.38v-123.34l9.32.3v75.3l53.1-51.47h11.65l-38.2,36.33,42.62,62.89h-9.78l-38.9-56.6-20.49,19.56v37.04h-9.32Z"/><polygon class="cls-3" points="507.01 366.99 481.29 366.99 444.82 313.92 431.99 326.17 431.99 366.99 409.45 366.99 409.45 231.7 431.99 231.7 431.99 297.03 475.8 254.55 506.66 254.55 460.54 298.42 507.01 366.99"/><path class="cls-3" d="M542.28,360.38v-99.22h9.32v99.22h-9.32Z"/><rect class="cls-3" x="535.67" y="254.55" width="22.53" height="112.44"/><path class="cls-3" d="M601.07,360.38v-99.22h9.32v16.77c2.8-5.9,7.06-10.56,12.81-13.97,5.74-3.57,12.11-5.36,19.1-5.36,9.78,0,18.09,3.18,24.92,9.55,6.99,6.52,10.48,14.29,10.48,23.29v68.95h-9.32v-68.95c0-6.83-2.56-12.66-7.69-17.47-5.12-4.81-11.25-7.22-18.4-7.22-7.77,0-14.68,2.64-20.73,7.92-6.06,5.44-9.78,12.19-11.18,20.26v65.45h-9.32Z"/><path class="cls-3" d="M684.31,366.99h-22.53v-75.55c0-4.97-1.83-9.11-5.6-12.65-3.89-3.65-8.43-5.43-13.88-5.43-6.17,0-11.53,2.06-16.39,6.29-4.76,4.27-7.7,9.49-8.91,15.87v71.47h-22.53v-112.44h22.53v5.56c.89-.63,1.81-1.23,2.77-1.8,6.77-4.19,14.35-6.32,22.53-6.32,11.46,0,21.36,3.81,29.43,11.32,8.35,7.8,12.58,17.26,12.58,28.13v75.55Z"/><path class="cls-1" d="M560.72,191.99c2.3,4.53,3.72,9.68,3.81,14.52.12,6.22-1.46,8.51-2.1,9.7-.96,1.77-4.98,9.2-12.46,11.26-3.58.98-8.81.97-9.51,3.34-.03.1-.05.38-.17.92-.38,1.66.61,5.54,1.28,6.96,1.73,3.66,3.14,5.03,2.57,5.31-.27.13-.99-.04-1.2-.24-.51-.47-1.99-4.86-2.41-6.05-.54-1.52-1.05-3.56-1-6.39.01-.59.19-1.01-.37-2.24-1.1-2.43-4.57-8.02-3.65-14.59.85-6.04,4.72-12.09,10.05-14.56,3.25-1.51,5-.74,8.78-3.13,4.01-2.54,5.58-6.4,6.4-4.81Z"/><polygon class="cls-2" points="684.84 219.19 594.53 219.92 594.67 203.19 684.84 203.19 684.84 219.19"/><path class="cls-2" d="M578.99,224.55l11.21-25.86h94.64s0,25,0,25l-105.85.86Z"/><path class="cls-4" d="M612.1,170.5c-21.94,0-39.84-8.09-53.21-24.05l-.04-.05c-12.91-15.63-19.45-36.2-19.45-61.15s6.54-45.52,19.45-61.15C572.24,8.09,590.15,0,612.1,0s39.56,7.43,52.92,22.07c13.12,14.37,19.77,33.52,19.77,56.9v16.24h-111.77c1.25,12.17,4.91,22.15,10.9,29.75,7.1,9,16.32,13.38,28.18,13.38,9.31,0,17.45-2.38,24.89-7.27,7.42-4.94,13.11-17.83,15.93-25.74h31.93c-2.63,15.6-11.28,40.27-25.32,50.4-13.56,9.8-29.52,14.77-47.43,14.77ZM573.62,62.73h77.19c-1.74-7.96-5.64-14.77-11.83-20.7-7.84-7.09-16.64-10.54-26.89-10.54s-18.86,3.53-26.48,10.78c-6.14,5.85-10.1,12.59-12,20.46Z"/><path class="cls-4" d="M475.51,165.54h-27.07l-26.52-84.97-26.51,84.97h-27.08L315.18,4.95h33.08l32.88,83.14,26.07-83.14h29.6l25.96,83.14L495.19,4.95h33.47l-53.15,160.59Z"/></g></svg>